<?xml version="1.0" encoding="UTF-8"?>
<svg width="704px" height="557px" viewBox="0 0 704 557" version="1.1" xmlns="http://www.w3.org/2000/svg" xmlns:xlink="http://www.w3.org/1999/xlink">
    <!-- Generator: sketchtool 59.1 (101010) - https://sketch.com -->
    <title>43F4D6B5-DC14-4B14-A4EC-95D767176780</title>
    <desc>Created with sketchtool.</desc>
    <defs>
        <polygon id="path-1" points="0 557 703.728529 557 703.728529 0.912467273 0 0.912467273"></polygon>
    </defs>
    <g id="01.-UI" stroke="none" stroke-width="1" fill="none" fill-rule="evenodd">
        <g id="Home" transform="translate(0.000000, -127.000000)">
            <g id="Group-70" transform="translate(0.000000, 127.000000)">
                <polygon id="Fill-1" fill="#FFFFFF" points="650.224961 555 640 544.854101 654.549052 530.417546 640.166193 516.145899 650.391154 506 675 530.417546"></polygon>
                <polygon id="Fill-2" fill="#FFFFFF" points="611.402464 552 598 547.542775 610.597536 509 624 513.457225"></polygon>
                <polygon id="Fill-3" fill="#F5326C" points="248 16 430 16 430 1 248 1"></polygon>
                <polygon id="Fill-4" fill="#FFB82A" points="247 55 491 55 491 40 247 40"></polygon>
                <polygon id="Fill-5" fill="#8031A2" points="530 55 648 55 648 40 530 40"></polygon>
                <polygon id="Fill-6" fill="#8031A2" points="468 209 596 209 596 194 468 194"></polygon>
                <polygon id="Fill-7" fill="#F5326C" points="469 16 567 16 567 1 469 1"></polygon>
                <polygon id="Fill-8" fill="#F5326C" points="398 480 497 480 497 465 398 465"></polygon>
                <polygon id="Fill-9" fill="#1BBC5F" points="537 480 578 480 578 465 537 465"></polygon>
                <g id="Group-69">
                    <path d="M437.74953,8.47470436 C437.74953,4.29821709 434.362226,0.912669818 430.184822,0.912669818 C426.008431,0.912669818 422.621127,4.29821709 422.621127,8.47470436 C422.621127,12.6511916 426.008431,16.0367389 430.184822,16.0367389 C434.362226,16.0367389 437.74953,12.6511916 437.74953,8.47470436" id="Fill-10" fill="#25B9E9"></path>
                    <path d="M703.727922,85.7692905 C703.727922,81.3244305 700.123847,77.7221596 695.679024,77.7221596 C691.234201,77.7221596 687.630126,81.3244305 687.630126,85.7692905 C687.630126,90.2141505 691.234201,93.8164215 695.679024,93.8164215 C700.123847,93.8164215 703.727922,90.2141505 703.727922,85.7692905" id="Fill-12" fill="#FFB82A"></path>
                    <path d="M301.634422,163.047065 C301.634422,158.602205 298.030347,154.999935 293.585524,154.999935 C289.140701,154.999935 285.536626,158.602205 285.536626,163.047065 C285.536626,167.490913 289.140701,171.093184 293.585524,171.093184 C298.030347,171.093184 301.634422,167.490913 301.634422,163.047065" id="Fill-14" fill="#FFB82A"></path>
                    <path d="M597.512656,240.325954 C597.512656,236.312516 594.258049,233.058623 590.243729,233.058623 C586.228397,233.058623 582.97379,236.312516 582.97379,240.325954 C582.97379,244.339393 586.228397,247.593285 590.243729,247.593285 C594.258049,247.593285 597.512656,244.339393 597.512656,240.325954" id="Fill-16" fill="#FFB82A"></path>
                    <polygon id="Fill-18" fill="#FFFFFF" points="202.998451 52.1762155 178.701841 27.8849391 203.162548 3.42757545 213.258618 13.5214282 198.892966 27.8849391 213.09452 42.0823627"></polygon>
                    <mask id="mask-2" fill="white">
                        <use xlink:href="#path-1"></use>
                    </mask>
                    <g id="Clip-21"></g>
                    <polygon id="Fill-20" fill="#FFB82A" mask="url(#mask-2)" points="73.1035626 16.0476764 157.822619 16.0476764 157.822619 0.931709091 73.1035626 0.931709091"></polygon>
                    <polygon id="Fill-22" fill="#25B9E9" mask="url(#mask-2)" points="73.1035626 54.6872727 157.822619 54.6872727 157.822619 39.5713055 73.1035626 39.5713055"></polygon>
                    <polygon id="Fill-23" fill="#F5326C" mask="url(#mask-2)" points="73.1035626 93.3268691 429.236397 93.3268691 429.236397 78.2109018 73.1035626 78.2109018"></polygon>
                    <polygon id="Fill-24" fill="#1BBC5F" mask="url(#mask-2)" points="73.1035626 131.966465 164.270043 131.966465 164.270043 116.850498 73.1035626 116.850498"></polygon>
                    <polygon id="Fill-25" fill="#FFB82A" mask="url(#mask-2)" points="202.562578 131.966465 597.824645 131.966465 597.824645 116.850498 202.562578 116.850498"></polygon>
                    <polygon id="Fill-26" fill="#25B9E9" mask="url(#mask-2)" points="73.1035626 170.606062 250.919781 170.606062 250.919781 155.490095 73.1035626 155.490095"></polygon>
                    <polygon id="Fill-27" fill="#25B9E9" mask="url(#mask-2)" points="332.959586 170.606062 565.484201 170.606062 565.484201 155.490095 332.959586 155.490095"></polygon>
                    <path d="M436.988805,356.243629 C436.988805,351.799782 433.38473,348.197511 428.939907,348.197511 C424.494071,348.197511 420.889996,351.799782 420.889996,356.243629 C420.889996,360.688489 424.494071,364.29076 428.939907,364.29076 C433.38473,364.29076 436.988805,360.688489 436.988805,356.243629" id="Fill-28" fill="#FFB82A" mask="url(#mask-2)"></path>
                    <polygon id="Fill-29" fill="#25B9E9" mask="url(#mask-2)" points="202.907994 363.802018 386.273151 363.802018 386.273151 348.686051 202.907994 348.686051"></polygon>
                    <polygon id="Fill-30" fill="#25B9E9" mask="url(#mask-2)" points="468.312955 363.802018 624.989928 363.802018 624.989928 348.686051 468.312955 348.686051"></polygon>
                    <polygon id="Fill-31" fill="#25B9E9" mask="url(#mask-2)" points="604.857554 170.606062 664.694515 170.606062 664.694515 155.490095 604.857554 155.490095"></polygon>
                    <polygon id="Fill-32" fill="#F5326C" mask="url(#mask-2)" points="73.1035626 209.244645 429.236397 209.244645 429.236397 194.128678 73.1035626 194.128678"></polygon>
                    <polygon id="Fill-33" fill="#FFB82A" mask="url(#mask-2)" points="73.1035626 247.884242 124.161289 247.884242 124.161289 232.768275 73.1035626 232.768275"></polygon>
                    <polygon id="Fill-34" fill="#FFB82A" mask="url(#mask-2)" points="163.534642 247.884242 293.58522 247.884242 293.58522 232.768275 163.534642 232.768275"></polygon>
                    <polygon id="Fill-35" fill="#FFB82A" mask="url(#mask-2)" points="483.917445 518.359391 578.104541 518.359391 578.104541 503.243424 483.917445 503.243424"></polygon>
                    <polygon id="Fill-36" fill="#1BBC5F" mask="url(#mask-2)" points="332.959586 247.581436 550.869364 247.581436 550.869364 233.07108 332.959586 233.07108"></polygon>
                    <polygon id="Fill-37" fill="#1BBC5F" mask="url(#mask-2)" points="73.1035626 286.221033 228.560944 286.221033 228.560944 271.710676 73.1035626 271.710676"></polygon>
                    <polygon id="Fill-38" fill="#25B9E9" mask="url(#mask-2)" points="267.934296 286.523838 530.104909 286.523838 530.104909 271.407871 267.934296 271.407871"></polygon>
                    <polygon id="Fill-39" fill="#F5326C" mask="url(#mask-2)" points="73.1035626 325.163435 481.61501 325.163435 481.61501 310.047467 73.1035626 310.047467"></polygon>
                    <polygon id="Fill-40" fill="#FFB82A" mask="url(#mask-2)" points="73.1035626 363.801005 164.270043 363.801005 164.270043 348.685038 73.1035626 348.685038"></polygon>
                    <polygon id="Fill-41" fill="#25B9E9" mask="url(#mask-2)" points="73.1035626 402.441615 285.537335 402.441615 285.537335 387.325647 73.1035626 387.325647"></polygon>
                    <polygon id="Fill-42" fill="#F5326C" mask="url(#mask-2)" points="73.1035626 441.081211 429.236397 441.081211 429.236397 425.965244 73.1035626 425.965244"></polygon>
                    <polygon id="Fill-43" fill="#F5326C" mask="url(#mask-2)" points="324.910688 402.441615 481.151079 402.441615 481.151079 387.325647 324.910688 387.325647"></polygon>
                    <polygon id="Fill-44" fill="#FFB82A" mask="url(#mask-2)" points="73.1035626 479.719795 358.99543 479.719795 358.99543 464.603827 73.1035626 464.603827"></polygon>
                    <polygon id="Fill-45" fill="#25B9E9" mask="url(#mask-2)" points="73.1035626 518.360404 444.542066 518.360404 444.542066 503.244436 73.1035626 503.244436"></polygon>
                    <polygon id="Fill-46" fill="#F5326C" mask="url(#mask-2)" points="73.1035626 557 194.288806 557 194.288806 541.884033 73.1035626 541.884033"></polygon>
                    <polygon id="Fill-47" fill="#F5326C" mask="url(#mask-2)" points="233.662158 557 565.358596 557 565.358596 541.884033 233.662158 541.884033"></polygon>
                    <path d="M437.260883,85.7682778 C437.260883,81.593816 433.875605,78.2102942 429.700227,78.2102942 C425.524848,78.2102942 422.139571,81.593816 422.139571,85.7682778 C422.139571,89.9427396 425.524848,93.3272742 429.700227,93.3272742 C433.875605,93.3272742 437.260883,89.9427396 437.260883,85.7682778" id="Fill-48" fill="#1BBC5F" mask="url(#mask-2)"></path>
                    <path d="M171.830497,124.408178 C171.830497,120.233716 168.445219,116.849182 164.269841,116.849182 C160.094462,116.849182 156.709184,120.233716 156.709184,124.408178 C156.709184,128.58264 160.094462,131.967174 164.269841,131.967174 C168.445219,131.967174 171.830497,128.58264 171.830497,124.408178" id="Fill-49" fill="#FFB82A" mask="url(#mask-2)"></path>
                    <path d="M603.703197,124.408178 C603.703197,120.233716 600.317919,116.849182 596.14254,116.849182 C591.967162,116.849182 588.581884,120.233716 588.581884,124.408178 C588.581884,128.58264 591.967162,131.967174 596.14254,131.967174 C600.317919,131.967174 603.703197,128.58264 603.703197,124.408178" id="Fill-50" fill="#25B9E9" mask="url(#mask-2)"></path>
                    <polygon id="Fill-51" fill="#FFB82A" mask="url(#mask-2)" points="469.073681 93.3268691 665.001439 93.3268691 665.001439 78.2109018 469.073681 78.2109018"></polygon>
                    <path d="M476.170406,433.52343 C476.170406,429.348968 472.785128,425.964433 468.60975,425.964433 C464.434371,425.964433 461.049094,429.348968 461.049094,433.52343 C461.049094,437.697892 464.434371,441.081413 468.60975,441.081413 C472.785128,441.081413 476.170406,437.697892 476.170406,433.52343" id="Fill-52" fill="#1BBC5F" mask="url(#mask-2)"></path>
                    <polygon id="Fill-53" fill="#FFB82A" mask="url(#mask-2)" points="507.984115 441.081211 625.322176 441.081211 625.322176 425.965244 507.984115 425.965244"></polygon>
                    <polygon id="Fill-54" fill="#25B9E9" mask="url(#mask-2)" points="0 325.163435 33.9338129 325.163435 33.9338129 310.047467 0 310.047467"></polygon>
                    <polygon id="Fill-55" fill="#F5326C" mask="url(#mask-2)" points="0 286.679798 33.9338129 286.679798 33.9338129 271.563831 0 271.563831"></polygon>
                    <polygon id="Fill-56" fill="#FFB82A" mask="url(#mask-2)" points="0 248.196162 33.9338129 248.196162 33.9338129 233.080195 0 233.080195"></polygon>
                    <polygon id="Fill-57" fill="#1BBC5F" mask="url(#mask-2)" points="0 209.40972 33.9338129 209.40972 33.9338129 194.899364 0 194.899364"></polygon>
                    <polygon id="Fill-58" fill="#F5326C" mask="url(#mask-2)" points="0 171.228889 33.9338129 171.228889 33.9338129 156.112922 0 156.112922"></polygon>
                    <polygon id="Fill-59" fill="#FFB82A" mask="url(#mask-2)" points="0 132.745253 33.9338129 132.745253 33.9338129 117.629285 0 117.629285"></polygon>
                    <polygon id="Fill-60" fill="#8031A2" mask="url(#mask-2)" points="0 94.2616164 33.9338129 94.2616164 33.9338129 79.1456491 0 79.1456491"></polygon>
                    <polygon id="Fill-61" fill="#25B9E9" mask="url(#mask-2)" points="0 55.77798 33.9338129 55.77798 33.9338129 40.6620127 0 40.6620127"></polygon>
                    <polygon id="Fill-62" fill="#F5326C" mask="url(#mask-2)" points="0 17.2943436 33.9338129 17.2943436 33.9338129 2.17837636 0 2.17837636"></polygon>
                    <polygon id="Fill-63" fill="#8031A2" mask="url(#mask-2)" points="0 363.647071 33.9338129 363.647071 33.9338129 348.531104 0 348.531104"></polygon>
                    <polygon id="Fill-64" fill="#FFB82A" mask="url(#mask-2)" points="0 402.130707 33.9338129 402.130707 33.9338129 387.01474 0 387.01474"></polygon>
                    <polygon id="Fill-65" fill="#F5326C" mask="url(#mask-2)" points="0 440.614344 33.9338129 440.614344 33.9338129 425.498376 0 425.498376"></polygon>
                    <polygon id="Fill-66" fill="#25B9E9" mask="url(#mask-2)" points="0 479.09798 33.9338129 479.09798 33.9338129 463.982013 0 463.982013"></polygon>
                    <polygon id="Fill-67" fill="#F5326C" mask="url(#mask-2)" points="0 517.581616 33.9338129 517.581616 33.9338129 502.465649 0 502.465649"></polygon>
                    <polygon id="Fill-68" fill="#FFB82A" mask="url(#mask-2)" points="0 556.065253 33.9338129 556.065253 33.9338129 540.949285 0 540.949285"></polygon>
                </g>
            </g>
        </g>
    </g>
</svg>