<?xml version="1.0" encoding="UTF-8" standalone="no" ?>
<!DOCTYPE svg PUBLIC "-//W3C//DTD SVG 1.1//EN" "http://www.w3.org/Graphics/SVG/1.1/DTD/svg11.dtd">
<svg xmlns="http://www.w3.org/2000/svg" xmlns:xlink="http://www.w3.org/1999/xlink" version="1.1" width="1080" height="1080" viewBox="0 0 1080 1080" xml:space="preserve">
<desc>Created with Fabric.js 5.2.4</desc>
<defs>
</defs>
<g transform="matrix(1 0 0 1 540 540)" id="ebc486ca-6619-491e-af65-48baeb0cfdd2"  >
</g>
<g transform="matrix(1 0 0 1 540 540)" id="ecf34f39-03bc-49e4-a00b-a59f28053e7a"  >
<rect style="stroke: none; stroke-width: 1; stroke-dasharray: none; stroke-linecap: butt; stroke-dashoffset: 0; stroke-linejoin: miter; stroke-miterlimit: 4; fill: rgb(255,255,255); fill-rule: nonzero; opacity: 1; visibility: hidden;" vector-effect="non-scaling-stroke"  x="-540" y="-540" rx="0" ry="0" width="1080" height="1080" />
</g>
<g transform="matrix(18.71 0 0 18.71 913.83 165.9)"  >
<path style="stroke: none; stroke-width: 1; stroke-dasharray: none; stroke-linecap: butt; stroke-dashoffset: 0; stroke-linejoin: miter; stroke-miterlimit: 4; fill: rgb(255,177,42); fill-rule: nonzero; opacity: 1;" vector-effect="non-scaling-stroke"  transform=" translate(-47.49, -2.5)" d="M 55 2.5 C 55.000048117332994 1.8317280584301794 54.73254186085795 1.1912542676726883 54.25719236475922 0.721541326863667 C 53.78184286866049 0.25182838605464575 53.13822382596911 -0.00801926505191286 52.47 0 L 42.47 0 C 41.08928812542302 0 39.97 1.1192881254230165 39.97 2.5 C 39.97 3.8807118745769835 41.08928812542302 5 42.47 5 L 52.47 5 C 53.137422206504894 5.005323487257798 53.77948056141028 4.744602222721312 54.25424073129394 4.275471620069471 C 54.729000901177606 3.80634101741763 54.99736209304078 3.167438223882418 55 2.4999999999999987 Z" stroke-linecap="round" />
</g>
<g transform="matrix(18.71 0 0 18.71 426.94 165.9)"  >
<path style="stroke: none; stroke-width: 1; stroke-dasharray: none; stroke-linecap: butt; stroke-dashoffset: 0; stroke-linejoin: miter; stroke-miterlimit: 4; fill: rgb(238,50,108); fill-rule: nonzero; opacity: 1;" vector-effect="non-scaling-stroke"  transform=" translate(-21.45, -2.5)" d="M 7.93 5 L 32.48 5 C 33.86071187457698 5 34.98 3.8807118745769835 34.98 2.5 C 34.98 1.1192881254230165 33.86071187457698 0 32.48 0 L 21.36 0 C 16.444633159838716 0.08901142130418183 11.706836798625872 1.8528968871317466 7.929999999999991 5.000000000000007 Z" stroke-linecap="round" />
</g>
<g transform="matrix(18.71 0 0 18.71 820.55 532.41)"  >
<path style="stroke: none; stroke-width: 1; stroke-dasharray: none; stroke-linecap: butt; stroke-dashoffset: 0; stroke-linejoin: miter; stroke-miterlimit: 4; fill: rgb(27,181,95); fill-rule: nonzero; opacity: 1;" vector-effect="non-scaling-stroke"  transform=" translate(-42.5, -22.48)" d="M 40 22.48 C 40 23.860711874576985 41.11928812542302 24.98 42.5 24.98 C 43.88071187457698 24.98 45 23.860711874576985 45 22.48 C 45 21.099288125423016 43.88071187457698 19.98 42.5 19.98 C 41.11928812542302 19.98 40 21.099288125423016 40 22.48 Z" stroke-linecap="round" />
</g>
<g transform="matrix(18.71 0 0 18.71 820.12 352.77)"  >
<rect style="stroke: none; stroke-width: 1; stroke-dasharray: none; stroke-linecap: butt; stroke-dashoffset: 0; stroke-linejoin: miter; stroke-miterlimit: 4; fill: rgb(128,49,155); fill-rule: nonzero; opacity: 1;" vector-effect="non-scaling-stroke"  x="-7.495" y="-2.5" rx="2.42" ry="2.42" width="14.99" height="5" />
</g>
<g transform="matrix(18.71 0 0 18.71 380.99 914.1)"  >
<path style="stroke: none; stroke-width: 1; stroke-dasharray: none; stroke-linecap: butt; stroke-dashoffset: 0; stroke-linejoin: miter; stroke-miterlimit: 4; fill: rgb(27,181,95); fill-rule: nonzero; opacity: 1;" vector-effect="non-scaling-stroke"  transform=" translate(-19, -42.5)" d="M 30 42.47 C 29.983535553499053 41.09711298271637 28.862974356894572 39.99440933506176 27.49 40 L 8 40 C 11.765588074375835 43.1463381462465 16.493769043935465 44.9105847766792 21.39999999999999 45.00000000000001 L 27.529999999999998 45 C 28.908411573893208 44.97807566816816 30.01115909613554 43.84854075672157 30 42.47 Z" stroke-linecap="round" />
</g>
<g transform="matrix(18.71 0 0 18.71 1007.05 913.56)"  >
<circle style="stroke: none; stroke-width: 1; stroke-dasharray: none; stroke-linecap: butt; stroke-dashoffset: 0; stroke-linejoin: miter; stroke-miterlimit: 4; fill: rgb(238,50,108); fill-rule: nonzero; opacity: 1;" vector-effect="non-scaling-stroke"  cx="0" cy="0" r="2.5" />
</g>
<g transform="matrix(18.71 0 0 18.71 773.45 914.1)"  >
<path style="stroke: none; stroke-width: 1; stroke-dasharray: none; stroke-linecap: butt; stroke-dashoffset: 0; stroke-linejoin: miter; stroke-miterlimit: 4; fill: rgb(238,50,108); fill-rule: nonzero; opacity: 1;" vector-effect="non-scaling-stroke"  transform=" translate(-39.98, -42.5)" d="M 37.48 40 C 36.099288125423016 40 34.98 41.11928812542302 34.98 42.5 C 34.98 43.88071187457698 36.099288125423016 45 37.48 45 L 42.48 45 C 43.86071187457698 45 44.98 43.88071187457698 44.98 42.5 C 44.98 41.11928812542302 43.86071187457698 40 42.48 40 Z" stroke-linecap="round" />
</g>
<g transform="matrix(18.71 0 0 18.71 503.76 727.06)"  >
<path style="stroke: none; stroke-width: 1; stroke-dasharray: none; stroke-linecap: butt; stroke-dashoffset: 0; stroke-linejoin: miter; stroke-miterlimit: 4; fill: rgb(128,49,155); fill-rule: nonzero; opacity: 1;" vector-effect="non-scaling-stroke"  transform=" translate(-25.56, -32.5)" d="M 47.48 35 C 48.86071187457698 35 49.98 33.88071187457698 49.98 32.5 C 49.98 31.119288125423015 48.86071187457698 30 47.48 30 L 1.14 30 C 1.7082765857407847 31.766527573174265 2.512187898556089 33.448350403331816 3.5299999999999896 34.99999999999999 Z" stroke-linecap="round" />
</g>
<g transform="matrix(18.71 0 0 18.71 352.97 539.83)"  >
<path style="stroke: none; stroke-width: 1; stroke-dasharray: none; stroke-linecap: butt; stroke-dashoffset: 0; stroke-linejoin: miter; stroke-miterlimit: 4; fill: rgb(255,177,42); fill-rule: nonzero; opacity: 1;" vector-effect="non-scaling-stroke"  transform=" translate(-17.5, -22.49)" d="M 35 22.48 L 35 22.48 C 34.99451907935164 21.10156478014018 33.87843521985982 19.985480920648357 32.5 19.98 L 0.12 19.98 C 0 20.8 0 21.63 0 22.48 C 0 23.330000000000002 0 24.17 0.12 25 L 32.48 25 C 33.14998086275057 25.005381633497464 33.794084306250205 24.741610895250325 34.267847600750265 24.26784760075027 C 34.741610895250325 23.79408430625021 35.005381633497464 23.149980862750567 35 22.48 Z" stroke-linecap="round" />
</g>
<g transform="matrix(18.71 0 0 18.71 316.66 352.94)"  >
<path style="stroke: none; stroke-width: 1; stroke-dasharray: none; stroke-linecap: butt; stroke-dashoffset: 0; stroke-linejoin: miter; stroke-miterlimit: 4; fill: rgb(37,178,226); fill-rule: nonzero; opacity: 1;" vector-effect="non-scaling-stroke"  transform=" translate(-15.56, -12.5)" d="M 27.49 15 C 28.870711874576983 15 29.99 13.880711874576983 29.99 12.5 C 29.99 11.119288125423017 28.870711874576983 10 27.49 10 L 3.5 10 C 2.492923298191203 11.554837891529637 1.6960073230935317 13.23609522295933 1.1300000000000026 15.000000000000004 Z" stroke-linecap="round" />
</g>
</svg>