<svg xmlns="http://www.w3.org/2000/svg" xmlns:xlink="http://www.w3.org/1999/xlink" version="1.1" width="1000" height="100" viewBox="0 0 1000 1000" xml:space="preserve">
<desc>Created with Fabric.js 3.5.0</desc>
<defs>
</defs>
<rect x="0" y="0" width="100%" height="100%" fill="rgba(0,0,0,0)"/>
<g transform="matrix(1 0 0 1 500 93.0216)" id="499599">
<g style="">
		<g transform="matrix(4.0444 0 0 4.0444 -255.0525 -80.8879)" id="Capa_1-2">
<path style="stroke: none; stroke-width: 1; stroke-dasharray: none; stroke-linecap: butt; stroke-dashoffset: 0; stroke-linejoin: miter; stroke-miterlimit: 4; is-custom-font: none; font-file-url: none; fill: rgb(255,177,42); fill-rule: nonzero; opacity: 1;" transform=" translate(-47.485, -2.4999)" d="M 55 2.5 A 2.5 2.5 0 0 0 52.47 0 h -10 a 2.5 2.5 0 0 0 0 5 h 10 A 2.51 2.51 0 0 0 55 2.5 Z" stroke-linecap="round"/>
</g>
		<g transform="matrix(4.0444 0 0 4.0444 -360.3283 -80.8876)" id="Capa_1-2">
<path style="stroke: none; stroke-width: 1; stroke-dasharray: none; stroke-linecap: butt; stroke-dashoffset: 0; stroke-linejoin: miter; stroke-miterlimit: 4; is-custom-font: none; font-file-url: none; fill: rgb(238,50,108); fill-rule: nonzero; opacity: 1;" transform=" translate(-21.455, -2.5)" d="M 7.93 5 H 32.48 a 2.5 2.5 0 0 0 0 -5 H 21.36 A 21.59 21.59 0 0 0 7.93 5 Z" stroke-linecap="round"/>
</g>
		<g transform="matrix(4.0444 0 0 4.0444 -275.2138 -0.0805)" id="Capa_1-2">
<path style="stroke: none; stroke-width: 1; stroke-dasharray: none; stroke-linecap: butt; stroke-dashoffset: 0; stroke-linejoin: miter; stroke-miterlimit: 4; is-custom-font: none; font-file-url: none; fill: rgb(27,181,95); fill-rule: nonzero; opacity: 1;" transform=" translate(-42.5, -22.48)" d="M 40 22.48 a 2.5 2.5 0 1 0 2.5 -2.5 A 2.5 2.5 0 0 0 40 22.48 Z" stroke-linecap="round"/>
</g>
		<g transform="matrix(4.0444 0 0 4.0444 -275.3149 -40.4841)" id="Capa_1-2">
<rect style="stroke: none; stroke-width: 1; stroke-dasharray: none; stroke-linecap: butt; stroke-dashoffset: 0; stroke-linejoin: miter; stroke-miterlimit: 4; is-custom-font: none; font-file-url: none; fill: rgb(128,49,155); fill-rule: nonzero; opacity: 1;" x="-7.495" y="-2.5" rx="2.42" ry="2.42" width="14.99" height="5"/>
</g>
		<g transform="matrix(4.0444 0 0 4.0444 -370.257 80.8884)" id="Capa_1-2">
<path style="stroke: none; stroke-width: 1; stroke-dasharray: none; stroke-linecap: butt; stroke-dashoffset: 0; stroke-linejoin: miter; stroke-miterlimit: 4; is-custom-font: none; font-file-url: none; fill: rgb(27,181,95); fill-rule: nonzero; opacity: 1;" transform=" translate(-19, -42.5)" d="M 30 42.47 A 2.5 2.5 0 0 0 27.49 40 H 8 a 21.51 21.51 0 0 0 13.4 5 h 6.13 A 2.51 2.51 0 0 0 30 42.47 Z" stroke-linecap="round"/>
</g>
		<g transform="matrix(4.0444 0 0 4.0444 -234.8912 80.767)" id="Capa_1-2">
<circle style="stroke: none; stroke-width: 1; stroke-dasharray: none; stroke-linecap: butt; stroke-dashoffset: 0; stroke-linejoin: miter; stroke-miterlimit: 4; is-custom-font: none; font-file-url: none; fill: rgb(238,50,108); fill-rule: nonzero; opacity: 1;" cx="0" cy="0" r="2.5"/>
</g>
		<g transform="matrix(4.0444 0 0 4.0444 -285.4057 80.8884)" id="Capa_1-2">
<path style="stroke: none; stroke-width: 1; stroke-dasharray: none; stroke-linecap: butt; stroke-dashoffset: 0; stroke-linejoin: miter; stroke-miterlimit: 4; is-custom-font: none; font-file-url: none; fill: rgb(238,50,108); fill-rule: nonzero; opacity: 1;" transform=" translate(-39.98, -42.5)" d="M 37.48 40 a 2.5 2.5 0 1 0 0 5 h 5 a 2.5 2.5 0 0 0 0 -5 Z" stroke-linecap="round"/>
</g>
		<g transform="matrix(4.0444 0 0 4.0444 -343.726 40.4444)" id="Capa_1-2">
<path style="stroke: none; stroke-width: 1; stroke-dasharray: none; stroke-linecap: butt; stroke-dashoffset: 0; stroke-linejoin: miter; stroke-miterlimit: 4; is-custom-font: none; font-file-url: none; fill: rgb(128,49,155); fill-rule: nonzero; opacity: 1;" transform=" translate(-25.56, -32.5)" d="M 47.48 35 a 2.5 2.5 0 0 0 0 -5 H 1.14 a 20.64 20.64 0 0 0 2.39 5 Z" stroke-linecap="round"/>
</g>
		<g transform="matrix(4.0444 0 0 4.0444 -376.3236 -0.0399)" id="Capa_1-2">
<path style="stroke: none; stroke-width: 1; stroke-dasharray: none; stroke-linecap: butt; stroke-dashoffset: 0; stroke-linejoin: miter; stroke-miterlimit: 4; is-custom-font: none; font-file-url: none; fill: rgb(255,177,42); fill-rule: nonzero; opacity: 1;" transform=" translate(-17.5, -22.49)" d="M 35 22.48 h 0 a 2.51 2.51 0 0 0 -2.5 -2.5 H 0.12 C 0 20.8 0 21.63 0 22.48 S 0 24.17 0.12 25 H 32.48 A 2.5 2.5 0 0 0 35 22.48 Z" stroke-linecap="round"/>
</g>
		<g transform="matrix(4.0444 0 0 4.0444 -384.17 -40.4436)" id="Capa_1-2">
<path style="stroke: none; stroke-width: 1; stroke-dasharray: none; stroke-linecap: butt; stroke-dashoffset: 0; stroke-linejoin: miter; stroke-miterlimit: 4; is-custom-font: none; font-file-url: none; fill: rgb(37,178,226); fill-rule: nonzero; opacity: 1;" transform=" translate(-15.56, -12.5)" d="M 27.49 15 a 2.5 2.5 0 0 0 0 -5 H 3.5 a 21 21 0 0 0 -2.37 5 Z" stroke-linecap="round"/>
</g>
		<g transform="matrix(4.0444 0 0 4.0444 -97.5158 2.1334)" id="Capa_1-2">
<path style="stroke: none; stroke-width: 1; stroke-dasharray: none; stroke-linecap: butt; stroke-dashoffset: 0; stroke-linejoin: miter; stroke-miterlimit: 4; is-custom-font: none; font-file-url: none; fill: rgb(255,255,255); fill-rule: nonzero; opacity: 1;" transform=" translate(-82.8482, -21.49)" d="M 84.11 35.52 A 13.5 13.5 0 0 1 74 31.46 a 13.72 13.72 0 0 1 -4 -10 a 13.72 13.72 0 0 1 4 -10 a 13.56 13.56 0 0 1 10.08 -4 a 13.82 13.82 0 0 1 6.77 1.72 a 12.57 12.57 0 0 1 4.85 4.66 l -4.59 2.66 a 7.23 7.23 0 0 0 -2.86 -2.84 a 9.26 9.26 0 0 0 -10.52 1.45 a 8.8 8.8 0 0 0 -2.42 6.41 a 8.72 8.72 0 0 0 2.42 6.37 a 8.44 8.44 0 0 0 6.35 2.47 a 8.63 8.63 0 0 0 4.19 -1 a 6.9 6.9 0 0 0 2.84 -2.8 l 4.59 2.67 A 12.7 12.7 0 0 1 90.9 33.8 A 13.79 13.79 0 0 1 84.11 35.52 Z" stroke-linecap="round"/>
</g>
		<g transform="matrix(4.0444 0 0 4.0444 268.666 2.1333)" id="Capa_1-2">
<path style="stroke: none; stroke-width: 1; stroke-dasharray: none; stroke-linecap: butt; stroke-dashoffset: 0; stroke-linejoin: miter; stroke-miterlimit: 4; is-custom-font: none; font-file-url: none; fill: rgb(255,255,255); fill-rule: nonzero; opacity: 1;" transform=" translate(-105.205, -25.1447)" d="M 104.77 19 a 5.2 5.2 0 0 1 2.29 -2.78 a 7 7 0 0 1 3.58 -0.93 v 5.56 a 5.88 5.88 0 0 0 -4.08 0.93 a 4.41 4.41 0 0 0 -1.79 4 V 35 h -5 V 15.67 h 5 Z" stroke-linecap="round"/>
</g>
		<g transform="matrix(4.0444 0 0 4.0444 -10.3391 2.1334)" id="Capa_1-2">
<path style="stroke: none; stroke-width: 1; stroke-dasharray: none; stroke-linecap: butt; stroke-dashoffset: 0; stroke-linejoin: miter; stroke-miterlimit: 4; is-custom-font: none; font-file-url: none; fill: rgb(255,255,255); fill-rule: nonzero; opacity: 1;" transform=" translate(-122.705, -25.183)" d="M 129.94 32.56 a 10.2 10.2 0 0 1 -17.45 -7.24 a 10.22 10.22 0 1 1 20.43 0 A 9.82 9.82 0 0 1 129.94 32.56 Z m -11 -3.41 a 5 5 0 0 0 3.72 1.5 a 5.1 5.1 0 0 0 3.75 -1.5 a 5.21 5.21 0 0 0 1.5 -3.83 a 5.18 5.18 0 0 0 -1.5 -3.82 A 5.11 5.11 0 0 0 122.68 20 A 5 5 0 0 0 119 21.5 a 5.22 5.22 0 0 0 -1.49 3.82 A 5.24 5.24 0 0 0 119 29.15 Z" stroke-linecap="round"/>
</g>
		<g transform="matrix(4.0444 0 0 4.0444 97.127 2.1333)" id="Capa_1-2">
<path style="stroke: none; stroke-width: 1; stroke-dasharray: none; stroke-linecap: butt; stroke-dashoffset: 0; stroke-linejoin: miter; stroke-miterlimit: 4; is-custom-font: none; font-file-url: none; fill: rgb(255,255,255); fill-rule: nonzero; opacity: 1;" transform=" translate(-151.4298, -25.0329)" d="M 158.48 15.13 a 6.88 6.88 0 0 1 5.31 2.16 a 8.24 8.24 0 0 1 2 5.79 V 35 h -5 V 23.43 a 4 4 0 0 0 -0.85 -2.7 a 3 3 0 0 0 -2.4 -1 a 3.29 3.29 0 0 0 -2.64 1.12 a 4.92 4.92 0 0 0 -0.95 3.25 V 35 h -5 V 23.43 a 3.92 3.92 0 0 0 -0.85 -2.7 a 3 3 0 0 0 -2.39 -1 a 3.38 3.38 0 0 0 -2.65 1.12 a 4.77 4.77 0 0 0 -1 3.25 V 35 h -5 V 15.67 h 5 v 2 a 6 6 0 0 1 5.36 -2.59 a 5.73 5.73 0 0 1 5.26 2.78 A 6.51 6.51 0 0 1 158.48 15.13 Z" stroke-linecap="round"/>
</g>
		<g transform="matrix(4.0444 0 0 4.0444 200.9638 2.1333)" id="Capa_1-2">
<path style="stroke: none; stroke-width: 1; stroke-dasharray: none; stroke-linecap: butt; stroke-dashoffset: 0; stroke-linejoin: miter; stroke-miterlimit: 4; is-custom-font: none; font-file-url: none; fill: rgb(255,255,255); fill-rule: nonzero; opacity: 1;" transform=" translate(-214.7844, -25.3287)" d="M 210 27.37 Q 211 31 215.47 31 a 5.09 5.09 0 0 0 4.33 -1.93 l 4 2.31 a 9.56 9.56 0 0 1 -8.41 4.14 a 10.39 10.39 0 0 1 -7.69 -2.9 a 9.89 9.89 0 0 1 -2.89 -7.3 A 10 10 0 0 1 207.67 18 A 9.85 9.85 0 0 1 215 15.13 a 9.23 9.23 0 0 1 7 2.93 a 10.2 10.2 0 0 1 2.76 7.26 a 12.51 12.51 0 0 1 -0.19 2.05 Z M 210 23.51 h 9.85 A 4.7 4.7 0 0 0 218 20.57 a 5.06 5.06 0 0 0 -3 -1 a 5.24 5.24 0 0 0 -3.32 1 A 4.84 4.84 0 0 0 210 23.51 Z" stroke-linecap="round"/>
</g>
		<g transform="matrix(4.0444 0 0 4.0444 -197.0333 0.7159)" id="994961">
<path style="stroke: none; stroke-width: 1; stroke-dasharray: none; stroke-linecap: butt; stroke-dashoffset: 0; stroke-linejoin: miter; stroke-miterlimit: 4; is-custom-font: none; font-file-url: none; fill: rgb(255,255,255); fill-rule: nonzero; opacity: 1;" transform=" translate(-214.7844, -25.3287)" d="M 210 27.37 Q 211 31 215.47 31 a 5.09 5.09 0 0 0 4.33 -1.93 l 4 2.31 a 9.56 9.56 0 0 1 -8.41 4.14 a 10.39 10.39 0 0 1 -7.69 -2.9 a 9.89 9.89 0 0 1 -2.89 -7.3 A 10 10 0 0 1 207.67 18 A 9.85 9.85 0 0 1 215 15.13 a 9.23 9.23 0 0 1 7 2.93 a 10.2 10.2 0 0 1 2.76 7.26 a 12.51 12.51 0 0 1 -0.19 2.05 Z M 210 23.51 h 9.85 A 4.7 4.7 0 0 0 218 20.57 a 5.06 5.06 0 0 0 -3 -1 a 5.24 5.24 0 0 0 -3.32 1 A 4.84 4.84 0 0 0 210 23.51 Z" stroke-linecap="round"/>
</g>
		<g transform="matrix(2.9693 0 0 2.9693 327.5781 2.1336)" id="588515">
<path style="stroke: none; stroke-width: 1; stroke-dasharray: none; stroke-linecap: butt; stroke-dashoffset: 0; stroke-linejoin: miter; stroke-miterlimit: 4; is-custom-font: none; font-file-url: none; fill: rgb(255,255,255); fill-rule: nonzero; opacity: 1;" transform=" translate(-82.8482, -21.49)" d="M 84.11 35.52 A 13.5 13.5 0 0 1 74 31.46 a 13.72 13.72 0 0 1 -4 -10 a 13.72 13.72 0 0 1 4 -10 a 13.56 13.56 0 0 1 10.08 -4 a 13.82 13.82 0 0 1 6.77 1.72 a 12.57 12.57 0 0 1 4.85 4.66 l -4.59 2.66 a 7.23 7.23 0 0 0 -2.86 -2.84 a 9.26 9.26 0 0 0 -10.52 1.45 a 8.8 8.8 0 0 0 -2.42 6.41 a 8.72 8.72 0 0 0 2.42 6.37 a 8.44 8.44 0 0 0 6.35 2.47 a 8.63 8.63 0 0 0 4.19 -1 a 6.9 6.9 0 0 0 2.84 -2.8 l 4.59 2.67 A 12.7 12.7 0 0 1 90.9 33.8 A 13.79 13.79 0 0 1 84.11 35.52 Z" stroke-linecap="round"/>
</g>
		<g transform="matrix(4.0444 0 0 4.0444 406.7403 2.1333)" id="296726">
<path style="stroke: none; stroke-width: 1; stroke-dasharray: none; stroke-linecap: butt; stroke-dashoffset: 0; stroke-linejoin: miter; stroke-miterlimit: 4; is-custom-font: none; font-file-url: none; fill: rgb(255,255,255); fill-rule: nonzero; opacity: 1;" transform=" translate(-214.7844, -25.3287)" d="M 210 27.37 Q 211 31 215.47 31 a 5.09 5.09 0 0 0 4.33 -1.93 l 4 2.31 a 9.56 9.56 0 0 1 -8.41 4.14 a 10.39 10.39 0 0 1 -7.69 -2.9 a 9.89 9.89 0 0 1 -2.89 -7.3 A 10 10 0 0 1 207.67 18 A 9.85 9.85 0 0 1 215 15.13 a 9.23 9.23 0 0 1 7 2.93 a 10.2 10.2 0 0 1 2.76 7.26 a 12.51 12.51 0 0 1 -0.19 2.05 Z M 210 23.51 h 9.85 A 4.7 4.7 0 0 0 218 20.57 a 5.06 5.06 0 0 0 -3 -1 a 5.24 5.24 0 0 0 -3.32 1 A 4.84 4.84 0 0 0 210 23.51 Z" stroke-linecap="round"/>
</g>
</g>
</g>
</svg>